<svg xmlns="http://www.w3.org/2000/svg" width="500" height="500" viewBox="0 0 500 500">
<g>
<path d="M 0.00 0.00 L 500.00 0.00 L 500.00 500.00 L 0.00 500.00 ZM 218.67 281.30 C224.39,283.47 227.20,283.90 236.00,283.93 C251.53,284.00 259.59,281.41 267.04,273.96 C271.14,269.86 274.12,264.35 275.93,257.50 C276.59,255.00 276.99,238.39 276.99,213.25 L 277.00 173.00 L 265.19 173.00 L 264.81 212.75 C264.44,251.85 264.40,252.59 262.10,257.74 C259.23,264.17 253.54,269.49 247.81,271.10 C245.44,271.76 239.89,272.28 235.47,272.26 C222.85,272.18 216.50,268.59 211.17,258.50 L 208.53 253.50 L 208.18 213.86 L 207.83 174.22 L 205.04 173.66 C203.51,173.35 200.97,173.45 199.38,173.87 L 196.50 174.64 L 196.19 212.07 C195.88,250.85 196.24,255.72 200.10,264.73 C202.97,271.43 210.61,278.25 218.67,281.30 ZM 106.11 283.85 C126.83,286.33 143.25,279.19 151.21,264.26 C155.48,256.24 155.51,254.62 151.44,252.67 C147.02,250.56 144.00,250.52 144.00,252.57 C144.00,257.44 135.20,267.53 128.21,270.67 C123.74,272.68 107.07,273.11 102.50,271.33 C100.85,270.69 98.28,269.90 96.79,269.57 C89.39,267.96 81.16,254.36 78.94,240.08 C77.68,231.93 78.17,215.37 79.87,209.16 C82.63,199.03 89.38,190.93 98.99,186.20 C103.97,183.76 105.52,183.51 115.00,183.58 C129.29,183.70 135.43,186.44 141.13,195.25 C142.83,197.86 144.73,200.00 145.37,200.00 C146.87,200.00 154.00,195.17 154.00,194.16 C154.00,193.74 152.73,191.39 151.18,188.95 C143.42,176.74 130.64,171.28 112.13,172.25 C101.34,172.82 95.73,174.46 87.19,179.55 C80.11,183.76 77.15,186.79 73.04,194.00 C68.08,202.71 67.24,205.03 66.09,213.33 C61.61,245.50 71.22,269.55 92.59,279.70 C96.91,281.76 102.24,283.39 106.11,283.85 ZM 350.00 184.00 L 350.00 283.00 L 363.00 283.00 L 363.00 184.00 L 398.10 184.00 L 397.80 178.75 L 397.50 173.50 L 316.00 172.98 L 316.00 184.00 ZM 422.05 282.27 C429.90,286.31 438.43,278.60 434.51,271.02 C432.81,267.74 430.22,266.00 427.02,266.00 C417.78,266.00 414.06,278.17 422.05,282.27 Z" fill="rgb(0,0,0)"/>
<path d="M 350.00 184.00 L 316.00 184.00 L 316.00 172.98 L 397.50 173.50 L 397.80 178.75 L 398.10 184.00 L 363.00 184.00 L 363.00 283.00 L 350.00 283.00 ZM 218.67 281.30 C218.58,281.27 218.49,281.23 218.40,281.20 C227.51,284.01 247.00,283.34 247.00,279.98 C247.00,279.53 248.46,278.86 250.25,278.50 C256.11,277.33 256.87,276.93 256.73,275.11 C256.60,273.29 255.44,273.19 250.00,274.49 C243.16,276.13 237.35,276.17 233.62,274.61 C231.49,273.73 228.90,273.00 227.84,273.00 C224.41,273.00 216.30,268.17 213.22,264.28 C211.73,262.39 210.64,260.01 209.86,256.02 L 211.17 258.50 C216.50,268.59 222.85,272.18 235.47,272.26 C239.89,272.28 245.44,271.76 247.81,271.10 C253.54,269.49 259.23,264.17 262.10,257.74 C264.40,252.59 264.44,251.85 264.81,212.75 L 265.19 173.00 L 277.00 173.00 L 276.99 213.25 C276.99,238.39 276.59,255.00 275.93,257.50 C274.12,264.35 271.14,269.86 267.04,273.96 C259.59,281.41 251.53,284.00 236.00,283.93 C227.20,283.90 224.39,283.47 218.67,281.30 ZM 422.05 282.27 C414.06,278.17 417.78,266.00 427.02,266.00 C430.22,266.00 432.81,267.74 434.51,271.02 C438.43,278.60 429.90,286.31 422.05,282.27 ZM 208.41 240.27 C208.11,232.54 208.00,222.27 208.00,208.38 L 208.00 194.01 L 208.18 213.86 ZM 261.00 267.00 C261.00,267.55 261.45,268.00 262.00,268.00 C262.55,268.00 263.00,267.55 263.00,267.00 C263.00,266.45 262.55,266.00 262.00,266.00 C261.45,266.00 261.00,266.45 261.00,267.00 ZM 209.35 275.98 C205.19,272.73 201.80,268.71 200.10,264.73 C201.68,268.42 205.28,272.66 209.35,275.98 ZM 199.38 173.87 C200.97,173.45 203.51,173.35 205.04,173.66 L 205.13 173.68 C203.55,173.36 200.97,173.45 199.38,173.87 Z" fill="rgb(146,77,201)"/>
<path d="M 208.41 240.27 L 208.53 253.50 L 209.86 256.02 C210.64,260.01 211.73,262.39 213.22,264.28 C216.30,268.17 224.41,273.00 227.84,273.00 C228.90,273.00 231.49,273.73 233.62,274.61 C237.35,276.17 243.16,276.13 250.00,274.49 C255.44,273.19 256.60,273.29 256.73,275.11 C256.87,276.93 256.11,277.33 250.25,278.50 C248.46,278.86 247.00,279.53 247.00,279.98 C247.00,283.34 227.51,284.01 218.40,281.20 C215.22,279.96 212.11,278.14 209.35,275.98 C205.28,272.66 201.68,268.42 200.10,264.73 C196.24,255.72 195.88,250.85 196.19,212.07 L 196.50 174.64 L 199.38 173.87 C200.97,173.45 203.55,173.36 205.13,173.68 L 207.83 174.22 L 208.00 194.01 L 208.00 208.38 C208.00,222.27 208.11,232.54 208.41,240.27 ZM 106.11 283.85 C102.24,283.39 96.91,281.76 92.59,279.70 C82.12,274.73 74.47,266.42 69.92,255.45 C72.19,260.40 75.42,264.47 80.65,269.49 C89.96,278.41 96.79,281.51 106.93,281.41 C110.79,281.37 112.59,281.65 111.43,282.10 C109.90,282.70 110.15,282.87 112.63,282.93 C116.00,283.01 122.47,280.67 123.50,279.01 C125.23,276.20 114.85,276.30 111.38,279.12 C110.61,279.74 110.07,279.11 109.67,277.11 C109.17,274.61 108.50,274.09 104.94,273.49 C102.21,273.03 98.70,271.38 95.33,269.11 C95.82,269.31 96.30,269.47 96.79,269.57 C98.28,269.90 100.85,270.69 102.50,271.33 C107.07,273.11 123.74,272.68 128.21,270.67 C135.20,267.53 144.00,257.44 144.00,252.57 C144.00,250.52 147.02,250.56 151.44,252.67 C155.51,254.62 155.48,256.24 151.21,264.26 C143.25,279.19 126.83,286.33 106.11,283.85 ZM 82.08 203.15 C82.73,201.62 83.49,200.08 84.17,199.00 C85.39,197.07 86.47,194.98 86.59,194.35 C86.70,193.72 87.63,192.29 88.65,191.18 C89.67,190.06 91.09,188.43 91.81,187.55 C92.53,186.67 93.59,186.25 94.17,186.61 C94.75,186.96 95.51,186.84 95.86,186.33 C97.51,183.92 104.05,181.00 107.81,181.00 C110.05,181.00 112.16,180.54 112.51,179.98 C112.85,179.43 114.79,178.26 116.82,177.39 C120.43,175.84 120.46,175.79 118.11,174.88 C116.79,174.37 114.76,174.27 113.61,174.66 C112.45,175.05 108.29,175.24 104.36,175.10 C100.03,174.94 96.96,175.26 96.55,175.92 C96.18,176.51 94.83,177.00 93.55,177.00 C90.35,177.00 81.50,183.08 81.49,185.29 C81.49,186.27 80.36,187.63 78.99,188.31 C75.70,189.94 70.24,198.18 69.39,202.81 C69.02,204.84 68.30,206.77 67.80,207.09 C67.41,207.35 67.05,208.08 66.74,209.18 C67.70,203.92 69.01,201.06 73.04,194.00 C77.15,186.79 80.11,183.76 87.19,179.55 C95.73,174.46 101.34,172.82 112.13,172.25 C130.64,171.28 143.42,176.74 151.18,188.95 C152.73,191.39 154.00,193.74 154.00,194.16 C154.00,195.17 146.87,200.00 145.37,200.00 C144.73,200.00 142.83,197.86 141.13,195.25 C135.43,186.44 129.29,183.70 115.00,183.58 C105.52,183.51 103.97,183.76 98.99,186.20 C91.37,189.95 85.55,195.82 82.08,203.15 ZM 88.53 263.37 C88.44,263.27 88.35,263.17 88.26,263.07 C84.32,258.75 80.42,249.35 79.04,240.82 C77.77,233.00 77.69,215.90 78.90,212.80 C79.03,212.46 79.19,212.02 79.36,211.51 C78.09,218.85 77.82,232.81 78.94,240.08 C80.33,249.04 84.10,257.74 88.53,263.37 ZM 127.60 178.16 C128.02,178.84 128.58,178.82 129.30,178.10 C130.58,176.82 129.59,175.52 128.05,176.47 C127.45,176.84 127.25,177.60 127.60,178.16 ZM 261.00 267.00 C261.00,266.45 261.45,266.00 262.00,266.00 C262.55,266.00 263.00,266.45 263.00,267.00 C263.00,267.55 262.55,268.00 262.00,268.00 C261.45,268.00 261.00,267.55 261.00,267.00 ZM 65.38 219.65 C65.01,226.12 65.11,233.85 65.78,239.80 C64.92,233.59 64.77,226.85 65.38,219.65 Z" fill="rgb(205,68,204)"/>
<path d="M 111.43 282.10 C112.59,281.65 110.79,281.37 106.93,281.41 C96.79,281.51 89.96,278.41 80.65,269.49 C72.06,261.25 68.87,255.58 66.48,244.33 C64.19,233.52 65.06,208.87 67.80,207.09 C68.30,206.77 69.02,204.84 69.39,202.81 C70.24,198.18 75.70,189.94 78.99,188.31 C80.36,187.63 81.49,186.27 81.49,185.29 C81.50,183.08 90.35,177.00 93.55,177.00 C94.83,177.00 96.18,176.51 96.55,175.92 C96.96,175.26 100.03,174.94 104.36,175.10 C108.29,175.24 112.45,175.05 113.61,174.66 C114.76,174.27 116.79,174.37 118.11,174.88 C120.46,175.79 120.43,175.84 116.82,177.39 C114.79,178.26 112.85,179.43 112.51,179.98 C112.16,180.54 110.05,181.00 107.81,181.00 C104.05,181.00 97.51,183.92 95.86,186.33 C95.51,186.84 94.75,186.96 94.17,186.61 C93.59,186.25 92.53,186.67 91.81,187.55 C91.09,188.43 89.67,190.06 88.65,191.18 C87.63,192.29 86.70,193.72 86.59,194.35 C86.47,194.98 85.39,197.07 84.17,199.00 C82.96,200.93 81.48,204.30 80.88,206.50 C80.29,208.70 79.39,211.53 78.90,212.80 C77.69,215.90 77.77,233.00 79.04,240.82 C80.42,249.35 84.32,258.75 88.26,263.07 C92.90,268.17 100.12,272.68 104.94,273.49 C108.50,274.09 109.17,274.61 109.67,277.11 C110.07,279.11 110.61,279.74 111.38,279.12 C114.85,276.30 125.23,276.20 123.50,279.01 C122.47,280.67 116.00,283.01 112.63,282.93 C110.15,282.87 109.90,282.70 111.43,282.10 ZM 127.60 178.16 C127.25,177.60 127.45,176.84 128.05,176.47 C129.59,175.52 130.58,176.82 129.30,178.10 C128.58,178.82 128.02,178.84 127.60,178.16 Z" fill="rgb(239,62,211)"/>
</g>
</svg>